<svg width="112" height="112" viewBox="0 0 112 112" fill="none" xmlns="http://www.w3.org/2000/svg">
<rect width="112" height="112" fill="white"/>
<path d="M29.2383 81V30.0723H42.2266L52.1387 56.835C52.6172 58.2477 53.221 60.0934 53.9502 62.3721C54.6794 64.6279 55.3402 66.7471 55.9326 68.7295C56.5251 66.7471 57.1745 64.6279 57.8809 62.3721C58.61 60.0934 59.2139 58.2477 59.6924 56.835L69.4336 30.0723H82.4902V81H73.6035V55.0234C73.6035 53.2233 73.6377 51.013 73.7061 48.3926C73.7744 45.7721 73.8428 43.1631 73.9111 40.5654C72.9997 43.4365 72.1338 46.1823 71.3135 48.8027C70.4932 51.4004 69.8096 53.474 69.2627 55.0234L59.5557 81H52.1729L42.3975 55.0234C41.8734 53.5423 41.2012 51.5713 40.3809 49.1104C39.5833 46.6266 38.7402 44.0176 37.8516 41.2832C37.9199 43.7897 37.9769 46.2848 38.0225 48.7686C38.0908 51.2295 38.125 53.3145 38.125 55.0234V81H29.2383Z" fill="#0E121B"/>
</svg>
